<?xml version="1.0" encoding="utf-8"?>
<!-- Generator: Adobe Illustrator 27.4.1, SVG Export Plug-In . SVG Version: 6.00 Build 0)  -->
<svg version="1.1" id="Calque_1" xmlns="http://www.w3.org/2000/svg" xmlns:xlink="http://www.w3.org/1999/xlink" x="0px" y="0px"
	 viewBox="0 0 500 500" style="enable-background:new 0 0 500 500;" xml:space="preserve">
<style type="text/css">
	.st0{fill:#2481FF;}
	.st1{fill:none;stroke:#2481FF;stroke-width:1.0161;stroke-miterlimit:10;}
	.st2{fill:none;stroke:#2481FF;stroke-width:1.3548;stroke-miterlimit:10;}
	.st3{fill:none;stroke:#2481FF;stroke-width:1.4902;stroke-miterlimit:10;}
	.st4{fill:none;stroke:#2481FF;stroke-width:1.6257;stroke-miterlimit:10;}
	.st5{fill:none;stroke:#2481FF;stroke-width:1.7612;stroke-miterlimit:10;}
	.st6{fill:none;stroke:#2481FF;stroke-width:1.8967;stroke-miterlimit:10;}
	.st7{fill:none;stroke:#2481FF;stroke-width:2.0321;stroke-miterlimit:10;}
	.st8{fill:none;stroke:#2481FF;stroke-width:2.1676;stroke-miterlimit:10;}
	.st9{fill:none;stroke:#2481FF;stroke-width:2.3031;stroke-miterlimit:10;}
	.st10{fill:none;stroke:#2481FF;stroke-width:2.4386;stroke-miterlimit:10;}
	.st11{fill:none;stroke:#2481FF;stroke-width:2.574;stroke-miterlimit:10;}
	.st12{fill:none;stroke:#2481FF;stroke-width:2.7095;stroke-miterlimit:10;}
	.st13{fill:none;stroke:#2481FF;stroke-width:0.75;stroke-miterlimit:10;}
</style>
<g>
	<g>
		<path class="st1" d="M454.46,108.71c15.99,16.84,32.55,37.49,30.64,61.66c-1.46,18.44-3.09,32.44-0.44,51.02
			c3.91,27.43-0.27,41.61-27.7,54.19c-21.3,9.77-49.72,19.51-60.92,41.76c-10.02,19.91-3.41,43.99-13.78,64.01
			c-7.98,15.41-22.32,27.91-31.81,42.53c-15.66,24.11-38.2,36.96-67.31,37.7c-28.98,0.74-66.36-4.24-92.06-18.52
			c-18.6-10.34-25.02-27.78-34.71-45.63c-17.05-31.38-36.06-35.07-67.72-46.34c-32.48-11.56-60.53-74.15-69.74-107.16
			c-6.23-22.35-7.6-46.76,2.77-68.12c10.04-20.67,30.24-37.13,52.15-42.62c36.88-9.24,80.97-10.22,111.11-34.16
			c28.79-22.87,73.15-40.75,108.71-54.98C349.74,21.59,418.3,70.61,454.46,108.71z"/>
		<path class="st2" d="M442.03,116.39c13.74,17.09,25.81,40.45,28.76,62.32c4.97,36.8,8.42,75.26-30.09,92.75
			c-18.78,8.53-43.42,17.33-53.8,36.81c-9.46,17.75-4.26,40.53-12.16,58.91c-6.31,14.69-19.23,26.33-28.07,39.57
			c-12.8,19.16-33.58,33.77-56.86,36.19c-25.35,2.63-59.94-4.05-81.93-16.8c-19.49-11.3-29.46-31.67-41.41-49.82
			c-17.62-26.77-33.29-29.32-63.09-38.64c-31.4-9.82-57.23-69.64-65.04-99.44c-5.22-19.92-6.32-41.94,3.08-60.83
			c9.98-20.07,30.65-33.8,51.98-38.09c35.58-7.17,67.59-16.08,96.9-35.43c26.61-17.57,63.81-34.68,95.03-47.77
			C335.1,35.23,412.12,79.18,442.03,116.39z"/>
		<path class="st3" d="M432.51,125c23.36,37.43,43.49,122.94-7.97,143.87c-20.72,8.42-39.06,16-48.72,37.8
			c-6.3,14.24-3.8,31.54-8.92,46.28c-4.96,14.29-15.58,24.64-23.99,36.85c-11.45,16.62-30.27,28.91-50.29,32.42
			c-24.51,4.3-53.09-3.02-72.76-17.65c-18.3-13.6-30.47-32.72-45.01-49.9c-16.59-19.61-33.29-23.96-57.33-30.74
			c-29.02-8.18-52.22-62.43-59.24-89.52c-4.81-18.55-5.71-38.03,4.35-54.99c10.94-18.44,31.91-29.78,52.22-33.42
			c32.35-5.81,54.12-20.14,81.96-34.81c26.16-13.79,53.65-30.33,80.2-43.02c10.1-4.83,22.49-3.55,33.69-2.08
			C351.64,71.48,409.74,88.53,432.51,125z"/>
		<path class="st4" d="M425.23,133.56c9.42,18.96,6.92,41.86,8.04,62.54c1.56,28.79,10.34,59.65-24.07,69.68
			c-41.85,12.19-39.66,38.57-50.27,73.15c-4.16,13.56-11.66,22.85-19.72,34.22c-10.71,15.1-27.61,25.04-45.76,28.2
			c-24.51,4.28-44.27-4.44-63.54-19.66c-16.62-13.12-29.92-29.62-44.74-44.59c-17.25-17.42-31.55-20.61-53.71-27.05
			c-38.24-11.12-71-92.14-45.12-127.89c11.57-15.98,31.34-25.4,50.14-29.42c26.29-5.61,44.44-21.23,66.37-33.88
			c21.63-12.48,45.46-27.06,67.23-38.67c8.19-4.37,18.41-3,27.93-1.82C334.67,82.9,407.45,97.8,425.23,133.56z"/>
		<path class="st5" d="M418.68,141.53c8.47,17.45,2.84,40.06,0.36,58.92c-2.79,21.18,3.9,56.16-24.11,60.25
			c-47.73,6.97-37.41,65.4-59.39,95.99c-9.37,13.05-24.89,22.93-41.03,25.1c-24.64,3.32-44.99-13.13-62.8-28.15
			c-29.86-25.19-48.22-48.08-86.03-57.34c-38.13-9.34-59.63-79.9-33.76-110.8c11.18-13.36,28.2-21.87,43.7-26.85
			c19.44-6.24,35.66-22.2,52.57-32.43c18.31-11.08,38.71-24.07,57.2-34.24c6.77-3.72,14.98-2.24,22.93-1.31
			C322.66,94.7,403.14,109.53,418.68,141.53z"/>
		<path class="st6" d="M410.5,148.85c9.43,12.91,2.36,35.8-1.71,51.67c-4.1,16.03-5.85,50.69-27.41,52.21
			c-43.2,3.04-33.43,59.52-49.5,86.79c-7.43,12.62-21.63,21.18-36.82,20.55c-21.32-0.88-40.42-18.12-55.87-30.93
			c-26.38-21.88-44.37-38.81-77.48-46.65c-34.34-8.13-46.53-68.59-24.78-93.89c9.07-10.56,22.16-19.23,34.33-25.21
			c15.26-7.5,28.35-21.37,41.94-30.01c15.42-9.78,33.88-21.29,49.61-29.83c5.9-3.2,13.07-1.49,20.15-0.62
			C320.26,107.54,390.23,121.09,410.5,148.85z"/>
		<path class="st7" d="M397.49,155.63c17.91,15.54-6.93,81.66-29.31,84.83c-32.77,4.65-30.6,43.36-40.28,74.35
			c-4.25,13.61-17.79,18.81-31.15,17.16c-18.52-2.29-36.31-20.61-49.75-31.63c-21.5-17.62-36.58-27.34-63.81-32.88
			c-30.36-6.18-38.04-56.12-22.76-78.04c6.34-9.1,15.96-17.64,25.07-23.55c11.41-7.4,21.8-18.44,32.68-25.37
			c13.42-8.53,30.43-18.83,44.07-25.54c5.47-2.69,12.5-1.01,19.22-0.07C318.38,120.01,370.58,132.28,397.49,155.63z"/>
		<path class="st8" d="M378.03,158.1c24.57,14.49-1.33,62.5-22.75,66.28c-27.62,4.87-29.11,32.29-32.61,60.4
			c-1.52,12.22-11.22,16.55-22.53,14.62c-13.89-2.36-25.53-14.91-36.24-22.92c-18.07-13.52-35.35-19.32-56.66-24.61
			c-38.17-9.47-34.19-63.21-8.7-84.38c0,0,10.99-11.44,24.89-19.8c12.49-7.51,27.54-15.9,39.95-21.45
			C290.31,114.21,353.06,143.37,378.03,158.1z"/>
		<path class="st9" d="M355.39,157.42c26.24,12.05,5.87,44.27-13.98,49.72c-21.28,5.84-26.03,24.6-25.44,47.1
			c0.23,8.86-4.32,12.16-12.27,12.27c-6.93,0.1-17.69-9.74-22.87-12.61c-16.47-9.14-32.31-13.36-50.57-17.29
			c-25.94-5.58-39.89-47.75-20.04-67.13c0,0,7.67-7.98,19.03-14.35c11.3-6.34,24.97-13.34,36.12-18.35
			C288.41,126.42,332.61,146.97,355.39,157.42z"/>
		<path class="st10" d="M332.47,156.49c22.17,7.59,9.18,28.73-6.11,35.09c-13.05,5.43-20.2,18.64-18.54,35.55
			c1.99,20.26-50.97-3.22-59.36-4.68c-17.55-3.06-41.63-32.24-27.59-49.79c0,0,5.53-4.15,15.06-9.71
			c9.53-5.56,31.1-16.67,31.1-16.67C287.47,139.33,313.54,150.01,332.47,156.49z"/>
		<path class="st11" d="M311.21,157.54c0,0,20.45,10.45-0.1,23.24c-20.56,12.8-12.57,25.76-12.57,25.76
			c-0.32,17.27-31.09,4.94-40.16,3.06c-11.86-2.46-36.83-16.73-26.97-32.13c0,0,5.25-3.21,12.52-8.32
			c7.27-5.11,23.82-14.17,23.82-14.17C281,149.97,298.3,153.14,311.21,157.54z"/>
		<path class="st12" d="M292.49,162.14c0,0,14.34,5.18,3.46,14.23c-10.88,9.06-7.96,16.38-7.96,16.38s3.95,11.36-25.6,4.66
			s-18.53-17.39-18.53-17.39s4.4-3.26,9.06-6.9c4.65-3.65,14.53-9.64,14.53-9.64S276.06,158.26,292.49,162.14z"/>
	</g>
</g>
</svg>
