<?xml version="1.0" encoding="utf-8"?>
<!-- Generator: Adobe Illustrator 27.8.1, SVG Export Plug-In . SVG Version: 6.00 Build 0)  -->
<svg version="1.1" id="Calque_1" xmlns="http://www.w3.org/2000/svg" xmlns:xlink="http://www.w3.org/1999/xlink" x="0px" y="0px"
	 viewBox="0 0 616 968" style="enable-background:new 0 0 616 968;" xml:space="preserve">
<style type="text/css">
	.st0{opacity:0.5;clip-path:url(#SVGID_00000028320443813598731450000018183576536629745315_);}
	.st1{fill:url(#SVGID_00000052799818656903519610000003732149437260932791_);}
	.st2{fill:url(#SVGID_00000034072493469188517840000008210351583701148049_);}
</style>
<g>
	<defs>
		<rect id="SVGID_1_" width="1113" height="968"/>
	</defs>
	<clipPath id="SVGID_00000108268358816590999710000012474345849697051797_">
		<use xlink:href="#SVGID_1_"  style="overflow:visible;"/>
	</clipPath>
	<g style="opacity:0.5;clip-path:url(#SVGID_00000108268358816590999710000012474345849697051797_);">
		
			<linearGradient id="SVGID_00000166654893857727382750000015894085130686232506_" gradientUnits="userSpaceOnUse" x1="10" y1="426.526" x2="853.885" y2="426.526">
			<stop  offset="0" style="stop-color:#E46B58"/>
			<stop  offset="1" style="stop-color:#072038;stop-opacity:0"/>
		</linearGradient>
		<path style="fill:url(#SVGID_00000166654893857727382750000015894085130686232506_);" d="M279.1,943.1
			c-62.6-37.7-117.1-87.4-160.5-146.3C75.2,738,43.9,671.2,26.3,600.3s-21-144.6-10.1-216.9c10.9-72.3,36-141.7,73.7-204.2
			C127.7,116.5,177.4,62,236.2,18.6C295-24.8,361.8-56.1,432.7-73.7s144.6-21,216.9-10.1c72.3,10.9,141.7,36,204.2,73.7L726.8,200.8
			c-34.9-21-73.6-35-113.9-41.1c-40.3-6.1-81.4-4.2-121,5.6s-76.8,27.3-109.6,51.5c-32.8,24.2-60.5,54.6-81.6,89.5
			c-21,34.9-35,73.6-41.1,113.9c-6.1,40.3-4.2,81.4,5.6,121c9.8,39.6,27.3,76.8,51.5,109.6c24.2,32.8,54.6,60.5,89.5,81.6
			L279.1,943.1z"/>
		
			<linearGradient id="SVGID_00000042734191209299923600000011876231585445533598_" gradientUnits="userSpaceOnUse" x1="431.9425" y1="1058" x2="431.9425" y2="-55" gradientTransform="matrix(1 0 0 -1 0 968)">
			<stop  offset="0" style="stop-color:#E46B58"/>
			<stop  offset="1" style="stop-color:#072038;stop-opacity:0"/>
		</linearGradient>
		<path style="fill:url(#SVGID_00000042734191209299923600000011876231585445533598_);" d="M279.1,943.1
			c-62.6-37.7-117.1-87.4-160.5-146.3C75.2,738,43.9,671.2,26.3,600.3s-21-144.6-10.1-216.9c10.9-72.3,36-141.7,73.7-204.2
			C127.7,116.5,177.4,62,236.2,18.6C295-24.8,361.8-56.1,432.7-73.7s144.6-21,216.9-10.1c72.3,10.9,141.7,36,204.2,73.7L726.8,200.8
			c-34.9-21-73.6-35-113.9-41.1c-40.3-6.1-81.4-4.2-121,5.6s-76.8,27.3-109.6,51.5c-32.8,24.2-60.5,54.6-81.6,89.5
			c-21,34.9-35,73.6-41.1,113.9c-6.1,40.3-4.2,81.4,5.6,121c9.8,39.6,27.3,76.8,51.5,109.6c24.2,32.8,54.6,60.5,89.5,81.6
			L279.1,943.1z"/>
	</g>
</g>
</svg>
