<svg fill="none" height="364" viewBox="0 0 1440 364" width="1440" xmlns="http://www.w3.org/2000/svg"><path d="m1153.56-15.0599c19.22-43.9525 51.59-80.8648 92.67-105.6541 41.07-24.789 88.81-36.237 136.66-32.765 47.85 3.471 93.44 21.69 130.5 52.148 37.06 30.4577 63.77 71.6566 76.45 117.9235 12.68 46.2668 10.7 95.3255-5.66 140.4225-16.36 45.096-46.3 84.011-85.69 111.387-39.4 27.375-86.31 41.865-134.28 41.473-47.97-.391-94.64-15.645-133.58-43.66l23.36-32.471c32.22 23.185 70.85 35.808 110.55 36.132 39.69.324 78.52-11.667 111.12-34.322 32.6-22.656 57.38-54.861 70.92-92.181 13.54-37.321 15.17-77.9207 4.68-116.2099s-32.59-72.3843-63.27-97.5905c-30.67-25.2062-68.4-40.2836-108-43.1566-39.59-2.873-79.11 6.601-113.09 27.1159-33.99 20.515-60.79 51.0627-76.7 87.436579z" fill="#156b79"/><path d="m1300.29-60.9318c23.44-13.2596 49.86-20.3674 76.79-20.6609s53.49 6.237 77.22 18.9826c23.72 12.7455 43.83 31.291 58.45 53.90729 14.62 22.61631 23.28 48.56681 25.16 75.43191 1.89 26.8651-3.06 53.7699-14.38 78.2059s-28.65 45.607-50.36 61.539c-21.72 15.932-47.11 26.107-73.82 29.575-26.7 3.469-53.85.118-78.91-9.74l14.09-35.838c19.01 7.478 39.61 10.02 59.86 7.389 20.26-2.631 39.53-10.349 56-22.434 16.47-12.086 29.61-28.145 38.19-46.68 8.59-18.536 12.35-38.9443 10.92-59.3226-1.43-20.3782-8-40.0627-19.09-57.2181-11.09-17.15532-26.34-31.2228-44.34-40.8908s-38.15-14.6217-58.57-14.3991c-20.43.2227-40.47 5.6143-58.25 15.6721z" fill="#86ddea"/></svg>